# xmcd
# 
# Track frame offsets:
#     150
#     19354
#     37584
#     60729
#     79919
# 
# Disc length: 1308
# 
# Revision: 0
# Processed by: cddbd v1.5.2PL0 Copyright (c) Steve Scherf et al.
# Submitted via: fre:ac v1.0.17
# 
DISCID=34051a05
DTITLE=SKE48 - 前のめり 劇場版
DYEAR=2015
DGENRE=JPop
TTITLE0=前のめり
TTITLE1=制服を着た名探偵
TTITLE2=SKE48 18th Single Medley
TTITLE3=前のめり off vocal ver.
TTITLE4=制服を着た名探偵 off vocal ver.
EXTD=
EXTT0=
EXTT1=
EXTT2=
EXTT3=
EXTT4=
PLAYORDER=
